<svg width="83" height="83" viewBox="0 0 83 83" fill="none" xmlns="http://www.w3.org/2000/svg">
<path d="M47.2887 20.3611C51.3111 18.0909 56.2827 21.0263 56.2375 25.6449L55.933 56.8204C55.8878 61.4389 50.8599 64.2767 46.8826 61.9283L20.0362 46.0768C16.059 43.7285 16.1154 37.9552 20.1377 35.685L47.2887 20.3611Z" fill="#BCE7F0"/>
<path d="M41.78 52.224C38.9427 52.224 36.8333 51.5147 35.452 50.096C34.0707 48.6773 33.38 46.4467 33.38 43.404V33.296L31.532 32.932V31.196H39.988V32.932L37.608 33.324V43.768C37.608 48.2107 39.1853 50.432 42.34 50.432C43.8893 50.432 45.0373 49.8627 45.784 48.724C46.5307 47.5667 46.904 45.952 46.904 43.88V33.324L44.496 32.932V31.196H51.496V32.932L49.592 33.296V43.656C49.592 46.568 48.8827 48.724 47.464 50.124C46.064 51.524 44.1693 52.224 41.78 52.224Z" fill="black"/>
</svg>
