<svg width="130" height="83" viewBox="0 0 130 83" fill="none" xmlns="http://www.w3.org/2000/svg">
<path d="M47.6291 20.7013C51.6515 18.4311 56.623 21.3665 56.5779 25.9851L56.2733 57.1606C56.2282 61.7791 51.2002 64.6169 47.223 62.2685L20.3765 46.417C16.3993 44.0687 16.4557 38.2954 20.4781 36.0252L47.6291 20.7013Z" fill="#BCE7F0"/>
<path d="M42.78 53.224C39.9427 53.224 37.8333 52.5147 36.452 51.096C35.0707 49.6773 34.38 47.4467 34.38 44.404V34.296L32.532 33.932V32.196H40.988V33.932L38.608 34.324V44.768C38.608 49.2107 40.1853 51.432 43.34 51.432C44.8893 51.432 46.0373 50.8627 46.784 49.724C47.5307 48.5667 47.904 46.952 47.904 44.88V34.324L45.496 33.932V32.196H52.496V33.932L50.592 34.296V44.656C50.592 47.568 49.8827 49.724 48.464 51.124C47.064 52.524 45.1693 53.224 42.78 53.224ZM55.6366 40.092L53.8446 39.588V37.656L58.4926 37.068H58.5766L59.2766 37.628V38.72L59.2486 39.392C59.9019 38.776 60.7513 38.244 61.7966 37.796C62.8419 37.348 63.8966 37.124 64.9606 37.124C66.0993 37.124 66.9859 37.3387 67.6206 37.768C68.2739 38.1787 68.7406 38.832 69.0206 39.728C69.3006 40.624 69.4406 41.8373 69.4406 43.368V51.096L71.1486 51.32V53H63.9246V51.32L65.4366 51.096V43.368C65.4366 42.3973 65.3713 41.6413 65.2406 41.1C65.1099 40.54 64.8673 40.1387 64.5126 39.896C64.1766 39.6347 63.6913 39.504 63.0566 39.504C61.9926 39.504 60.8539 39.9613 59.6406 40.876V51.068L61.3206 51.32V53H54.0126V51.32L55.6366 51.068V40.092ZM74.7512 32.532L72.6792 32.168V30.656L77.8592 30.04H77.9152L78.6712 30.572V51.096L80.7152 51.32V53H72.7912V51.32L74.7512 51.068V32.532ZM82.3348 48.632C82.3348 46.9333 83.1841 45.6547 84.8828 44.796C86.6001 43.9373 88.8121 43.4987 91.5188 43.48V42.836C91.5188 42.0707 91.4348 41.4733 91.2668 41.044C91.1175 40.6147 90.8281 40.2973 90.3988 40.092C89.9881 39.868 89.3815 39.756 88.5788 39.756C87.6641 39.756 86.8428 39.8773 86.1148 40.12C85.3868 40.344 84.6308 40.6427 83.8468 41.016L82.9788 39.224C83.2588 38.9813 83.7255 38.692 84.3788 38.356C85.0508 38.02 85.8441 37.7307 86.7588 37.488C87.6735 37.2267 88.6161 37.096 89.5868 37.096C91.0241 37.096 92.1441 37.2827 92.9468 37.656C93.7681 38.0293 94.3561 38.6267 94.7108 39.448C95.0655 40.2693 95.2428 41.3707 95.2428 42.752V51.32H96.7548V52.888C96.3815 52.9813 95.8495 53.0747 95.1588 53.168C94.4681 53.2613 93.8615 53.308 93.3388 53.308C92.7041 53.308 92.2748 53.2147 92.0508 53.028C91.8455 52.8413 91.7428 52.4587 91.7428 51.88V51.124C91.2388 51.684 90.5855 52.188 89.7828 52.636C88.9801 53.084 88.0748 53.308 87.0668 53.308C86.2081 53.308 85.4148 53.1307 84.6868 52.776C83.9775 52.4027 83.4081 51.8707 82.9788 51.18C82.5495 50.4707 82.3348 49.6213 82.3348 48.632ZM88.8588 50.984C89.2508 50.984 89.6988 50.872 90.2028 50.648C90.7068 50.4053 91.1455 50.116 91.5188 49.78V45.188C89.8388 45.188 88.5788 45.4773 87.7388 46.056C86.9175 46.616 86.5068 47.344 86.5068 48.24C86.5068 49.136 86.7121 49.8173 87.1228 50.284C87.5521 50.7507 88.1308 50.984 88.8588 50.984ZM97.2422 30.656L102.366 30.04H102.422L103.206 30.572V38.832C103.71 38.328 104.326 37.908 105.054 37.572C105.801 37.2173 106.604 37.04 107.462 37.04C109.254 37.04 110.71 37.6747 111.83 38.944C112.969 40.1947 113.538 42.1173 113.538 44.712C113.538 46.3173 113.202 47.7733 112.53 49.08C111.858 50.3867 110.888 51.4227 109.618 52.188C108.368 52.9347 106.912 53.308 105.25 53.308C103.776 53.308 102.497 53.1867 101.414 52.944C100.332 52.6827 99.6409 52.4493 99.3422 52.244V32.448L97.2422 32.112V30.656ZM105.978 39.504C105.418 39.504 104.886 39.6347 104.382 39.896C103.897 40.1387 103.505 40.4187 103.206 40.736V50.956C103.318 51.1613 103.58 51.3293 103.99 51.46C104.401 51.5907 104.868 51.656 105.39 51.656C106.585 51.656 107.537 51.1053 108.246 50.004C108.974 48.884 109.338 47.232 109.338 45.048C109.338 43.1627 109.03 41.772 108.414 40.876C107.798 39.9613 106.986 39.504 105.978 39.504ZM118.919 50.704C119.068 50.928 119.404 51.1427 119.927 51.348C120.468 51.5347 121.009 51.628 121.551 51.628C122.428 51.628 123.081 51.4507 123.511 51.096C123.959 50.7227 124.183 50.2373 124.183 49.64C124.183 49.024 123.912 48.5293 123.371 48.156C122.829 47.764 121.915 47.288 120.627 46.728L119.843 46.392C118.555 45.8507 117.593 45.1973 116.959 44.432C116.324 43.6667 116.007 42.6773 116.007 41.464C116.007 40.624 116.259 39.8773 116.763 39.224C117.267 38.552 117.976 38.0293 118.891 37.656C119.805 37.2827 120.86 37.096 122.055 37.096C122.932 37.096 123.679 37.152 124.295 37.264C124.929 37.376 125.592 37.5253 126.283 37.712C126.656 37.8427 126.936 37.9173 127.123 37.936V41.604H124.911L124.267 39.476C124.155 39.2893 123.903 39.1213 123.511 38.972C123.119 38.8227 122.671 38.748 122.167 38.748C121.401 38.748 120.785 38.916 120.319 39.252C119.871 39.5693 119.647 40.0173 119.647 40.596C119.647 41.1187 119.805 41.5573 120.123 41.912C120.44 42.248 120.785 42.5093 121.159 42.696C121.532 42.8827 122.223 43.1907 123.231 43.62C124.239 44.0493 125.069 44.46 125.723 44.852C126.395 45.244 126.945 45.7573 127.375 46.392C127.823 47.008 128.047 47.764 128.047 48.66C128.047 50.0413 127.505 51.1613 126.423 52.02C125.34 52.8787 123.781 53.308 121.747 53.308C120.795 53.308 119.936 53.224 119.171 53.056C118.424 52.888 117.556 52.664 116.567 52.384L115.951 52.188V48.492H118.275L118.919 50.704Z" fill="black"/>
</svg>
